"Kafirana" is the Official HD Full song of "Joker"
Song Name: Kafirana
Featuring: Akshay Kumar, Sonakshi Sinha, Chitrangda Singh
Singer: Sunidhi Chauhan, Adarsh Shinde
Composer: Gaurav Dagaonkar
Lyrics: Shirish Kunder
Director: Shirish Kunder

Movie releases on 31st Aug, 2012. The film is an "out of this world" comedy about an NRI (Akshay Kumar) and his beautiful wife (Sonakshi Sinha) who return home to discover that their village has dropped off the map of India. To put it back on the world's radar they must now forge an unlikely alliance of crazy villagers & aliens that will turn their village into the biggest "tamasha" the universe has ever seen!

General
Complete name                  : Joker - Kafirana Official HD Full Song Video feat. Akshay Kumar, Sonakshi Sinha, Chitrangda Singh {ECS}.mp4
Format                         : MPEG-4
Format profile                 : Base Media
Codec ID                       : isom
File size                      : 40.0 MiB
Duration                       : 2mn 35s
Overall bit rate mode          : Variable
Overall bit rate               : 2 161 Kbps
Encoded date                   : UTC 2012-07-28 10:30:22
Tagged date                    : UTC 2012-07-28 10:30:22

Video
ID                             : 1
Format                         : AVC
Format/Info                    : Advanced Video Codec
Format profile                 : High@L4.1
Format settings, CABAC         : Yes
Format settings, ReFrames      : 3 frames
Codec ID                       : avc1
Codec ID/Info                  : Advanced Video Coding
Duration                       : 2mn 35s
Bit rate mode                  : Variable
Bit rate                       : 2 029 Kbps
Maximum bit rate               : 14.0 Mbps
Width                          : 1 280 pixels
Height                         : 544 pixels
Display aspect ratio           : 2.35:1
Frame rate mode                : Constant
Frame rate                     : 25.000 fps
Color space                    : YUV
Chroma subsampling             : 4:2:0
Bit depth                      : 8 bits
Scan type                      : Progressive
Bits/(Pixel*Frame)             : 0.117
Stream size                    : 37.6 MiB (94%)
Writing library                : x264 core 125 r2200 999b753

Audio
ID                             : 2
Format                         : AC-3
Format/Info                    : Audio Coding 3
Mode extension                 : CM (complete main)
Format settings, Endianness    : Big
Codec ID                       : ac-3
Duration                       : 2mn 35s
Bit rate mode                  : Constant
Bit rate                       : 128 Kbps
Channel(s)                     : 2 channels
Channel positions              : Front: L R
Sampling rate                  : 44.1 KHz
Bit depth                      : 16 bits
Compression mode               : Lossy
Stream size                    : 2.37 MiB (6%)

 
http://i1271.photobucket.com/albums/jj629/sameer_ecs/Joker-KafiranaOfficialHDFullSongVideofeatAkshayKumarSonakshiSinhaChitrangdaSinghECSmp4_thumbs_20120728_160227.jpg